<mxfile host="app.diagrams.net" modified="2024-07-10T08:08:01.245Z" agent="Mozilla/5.0 (Windows NT 10.0; Win64; x64) AppleWebKit/537.36 (KHTML, like Gecko) Chrome/124.0.0.0 YaBrowser/24.6.0.0 Safari/537.36" etag="Y5_Js_RBaXO-8juSaC33" version="24.6.4" type="device">
  <diagram name="Page-1" id="e7e014a7-5840-1c2e-5031-d8a46d1fe8dd">
    <mxGraphModel dx="1002" dy="567" grid="1" gridSize="10" guides="1" tooltips="1" connect="1" arrows="1" fold="1" page="1" pageScale="1" pageWidth="1169" pageHeight="826" background="none" math="0" shadow="0">
      <root>
        <mxCell id="0" />
        <mxCell id="1" parent="0" />
        <mxCell id="2" value=" Клиент" style="swimlane;whiteSpace=wrap" parent="1" vertex="1">
          <mxGeometry x="164.5" y="128" width="280" height="742" as="geometry" />
        </mxCell>
        <mxCell id="13" value="" style="ellipse;shape=startState;fillColor=#000000;strokeColor=none;" parent="2" vertex="1">
          <mxGeometry x="125" y="40" width="30" height="30" as="geometry" />
        </mxCell>
        <mxCell id="Vm5n7rc9IjcNKeEfTS-8-41" value="Добавить позицию в корзину" style="rounded=1;whiteSpace=wrap;html=1;" parent="2" vertex="1">
          <mxGeometry x="80" y="102" width="120" height="60" as="geometry" />
        </mxCell>
        <mxCell id="Vm5n7rc9IjcNKeEfTS-8-42" value="Добавлен весь заказ?" style="rhombus;whiteSpace=wrap;html=1;" parent="2" vertex="1">
          <mxGeometry x="85" y="192" width="110" height="80" as="geometry" />
        </mxCell>
        <mxCell id="Vm5n7rc9IjcNKeEfTS-8-43" value="" style="endArrow=open;html=1;rounded=0;exitX=0;exitY=0.5;exitDx=0;exitDy=0;entryX=-0.001;entryY=0.818;entryDx=0;entryDy=0;endFill=0;entryPerimeter=0;" parent="2" source="Vm5n7rc9IjcNKeEfTS-8-42" target="Vm5n7rc9IjcNKeEfTS-8-41" edge="1">
          <mxGeometry width="50" height="50" relative="1" as="geometry">
            <mxPoint x="65.5" y="172" as="sourcePoint" />
            <mxPoint x="115.5" y="122" as="targetPoint" />
            <Array as="points">
              <mxPoint x="25.5" y="232" />
              <mxPoint x="25.5" y="152" />
            </Array>
          </mxGeometry>
        </mxCell>
        <mxCell id="Vm5n7rc9IjcNKeEfTS-8-45" value="нет" style="edgeLabel;html=1;align=center;verticalAlign=middle;resizable=0;points=[];" parent="Vm5n7rc9IjcNKeEfTS-8-43" vertex="1" connectable="0">
          <mxGeometry x="-0.6562" y="-2" relative="1" as="geometry">
            <mxPoint as="offset" />
          </mxGeometry>
        </mxCell>
        <mxCell id="Vm5n7rc9IjcNKeEfTS-8-44" value="" style="endArrow=open;html=1;rounded=0;entryX=0.5;entryY=0;entryDx=0;entryDy=0;exitX=0.5;exitY=1;exitDx=0;exitDy=0;endFill=0;" parent="2" source="Vm5n7rc9IjcNKeEfTS-8-41" target="Vm5n7rc9IjcNKeEfTS-8-42" edge="1">
          <mxGeometry width="50" height="50" relative="1" as="geometry">
            <mxPoint x="140.31" y="165.06" as="sourcePoint" />
            <mxPoint x="139.68999999999988" y="192" as="targetPoint" />
          </mxGeometry>
        </mxCell>
        <mxCell id="Vm5n7rc9IjcNKeEfTS-8-46" value="" style="endArrow=open;html=1;rounded=0;entryX=0.5;entryY=0;entryDx=0;entryDy=0;exitX=0.491;exitY=0.798;exitDx=0;exitDy=0;endFill=0;exitPerimeter=0;" parent="2" source="13" target="Vm5n7rc9IjcNKeEfTS-8-41" edge="1">
          <mxGeometry width="50" height="50" relative="1" as="geometry">
            <mxPoint x="139.76" y="70" as="sourcePoint" />
            <mxPoint x="139.76" y="100" as="targetPoint" />
          </mxGeometry>
        </mxCell>
        <mxCell id="Vm5n7rc9IjcNKeEfTS-8-47" value="Создать заказ" style="rounded=1;whiteSpace=wrap;html=1;" parent="2" vertex="1">
          <mxGeometry x="85" y="322" width="120" height="28" as="geometry" />
        </mxCell>
        <mxCell id="Vm5n7rc9IjcNKeEfTS-8-48" value="" style="endArrow=open;html=1;rounded=0;entryX=0.457;entryY=0;entryDx=0;entryDy=0;exitX=0.5;exitY=1;exitDx=0;exitDy=0;endFill=0;entryPerimeter=0;" parent="2" source="Vm5n7rc9IjcNKeEfTS-8-42" target="Vm5n7rc9IjcNKeEfTS-8-47" edge="1">
          <mxGeometry width="50" height="50" relative="1" as="geometry">
            <mxPoint x="139.8" y="282" as="sourcePoint" />
            <mxPoint x="139.8" y="312" as="targetPoint" />
          </mxGeometry>
        </mxCell>
        <mxCell id="Vm5n7rc9IjcNKeEfTS-8-49" value="" style="endArrow=open;html=1;rounded=0;endFill=0;dashed=1;entryX=0;entryY=0.5;entryDx=0;entryDy=0;" parent="2" target="Vm5n7rc9IjcNKeEfTS-8-50" edge="1">
          <mxGeometry width="50" height="50" relative="1" as="geometry">
            <mxPoint x="205.5" y="342" as="sourcePoint" />
            <mxPoint x="305.5" y="292" as="targetPoint" />
          </mxGeometry>
        </mxCell>
        <mxCell id="Vm5n7rc9IjcNKeEfTS-8-57" value="Продолжить покупки?" style="rhombus;whiteSpace=wrap;html=1;" parent="2" vertex="1">
          <mxGeometry x="95" y="372" width="110" height="80" as="geometry" />
        </mxCell>
        <mxCell id="Vm5n7rc9IjcNKeEfTS-8-58" value="" style="endArrow=open;html=1;rounded=0;exitX=0;exitY=0.5;exitDx=0;exitDy=0;endFill=0;entryX=0;entryY=0.25;entryDx=0;entryDy=0;" parent="2" source="Vm5n7rc9IjcNKeEfTS-8-57" target="Vm5n7rc9IjcNKeEfTS-8-41" edge="1">
          <mxGeometry width="50" height="50" relative="1" as="geometry">
            <mxPoint x="150" y="282" as="sourcePoint" />
            <mxPoint x="15.5" y="122" as="targetPoint" />
            <Array as="points">
              <mxPoint x="15.5" y="412" />
              <mxPoint x="15.5" y="262" />
              <mxPoint x="15.5" y="117" />
            </Array>
          </mxGeometry>
        </mxCell>
        <mxCell id="Vm5n7rc9IjcNKeEfTS-8-59" value="да" style="edgeLabel;html=1;align=center;verticalAlign=middle;resizable=0;points=[];" parent="Vm5n7rc9IjcNKeEfTS-8-58" vertex="1" connectable="0">
          <mxGeometry x="-0.7527" y="-1" relative="1" as="geometry">
            <mxPoint as="offset" />
          </mxGeometry>
        </mxCell>
        <mxCell id="Vm5n7rc9IjcNKeEfTS-8-61" value="Заказ&lt;div&gt;[подтвержден]&lt;/div&gt;" style="html=1;whiteSpace=wrap;" parent="2" vertex="1">
          <mxGeometry x="95" y="472" width="110" height="50" as="geometry" />
        </mxCell>
        <mxCell id="3" value="Администратор" style="swimlane;whiteSpace=wrap" parent="1" vertex="1">
          <mxGeometry x="445" y="128" width="280" height="742" as="geometry" />
        </mxCell>
        <mxCell id="Vm5n7rc9IjcNKeEfTS-8-50" value="Заказ&lt;div&gt;[создан]&lt;/div&gt;" style="html=1;whiteSpace=wrap;" parent="3" vertex="1">
          <mxGeometry x="85.5" y="182" width="110" height="50" as="geometry" />
        </mxCell>
        <mxCell id="Vm5n7rc9IjcNKeEfTS-8-51" value="" style="endArrow=open;html=1;rounded=0;entryX=0.5;entryY=0;entryDx=0;entryDy=0;exitX=0.499;exitY=1.06;exitDx=0;exitDy=0;endFill=0;exitPerimeter=0;dashed=1;" parent="3" source="Vm5n7rc9IjcNKeEfTS-8-50" target="Vm5n7rc9IjcNKeEfTS-8-52" edge="1">
          <mxGeometry width="50" height="50" relative="1" as="geometry">
            <mxPoint x="140.21000000000004" y="252" as="sourcePoint" />
            <mxPoint x="140.21000000000004" y="302" as="targetPoint" />
          </mxGeometry>
        </mxCell>
        <mxCell id="Vm5n7rc9IjcNKeEfTS-8-52" value="Заказ может быть выполнен?" style="rhombus;whiteSpace=wrap;html=1;" parent="3" vertex="1">
          <mxGeometry x="85.5" y="312" width="110" height="80" as="geometry" />
        </mxCell>
        <mxCell id="Vm5n7rc9IjcNKeEfTS-8-54" value="" style="endArrow=open;html=1;rounded=0;exitX=0.5;exitY=1;exitDx=0;exitDy=0;endFill=0;entryX=0.5;entryY=0;entryDx=0;entryDy=0;" parent="3" source="Vm5n7rc9IjcNKeEfTS-8-52" target="Vm5n7rc9IjcNKeEfTS-8-55" edge="1">
          <mxGeometry width="50" height="50" relative="1" as="geometry">
            <mxPoint x="140.14" y="402" as="sourcePoint" />
            <mxPoint x="140" y="432" as="targetPoint" />
          </mxGeometry>
        </mxCell>
        <mxCell id="Vm5n7rc9IjcNKeEfTS-8-56" value="да" style="edgeLabel;html=1;align=center;verticalAlign=middle;resizable=0;points=[];" parent="Vm5n7rc9IjcNKeEfTS-8-54" vertex="1" connectable="0">
          <mxGeometry x="-0.2067" relative="1" as="geometry">
            <mxPoint as="offset" />
          </mxGeometry>
        </mxCell>
        <mxCell id="Vm5n7rc9IjcNKeEfTS-8-55" value="Оформить заказ" style="rounded=1;whiteSpace=wrap;html=1;" parent="3" vertex="1">
          <mxGeometry x="80" y="442" width="120" height="40" as="geometry" />
        </mxCell>
        <mxCell id="Vm5n7rc9IjcNKeEfTS-8-68" value="" style="shape=partialRectangle;html=1;top=1;align=left;fillColor=#000000;" parent="3" vertex="1">
          <mxGeometry x="-170" y="572" width="360" height="8" as="geometry" />
        </mxCell>
        <mxCell id="Vm5n7rc9IjcNKeEfTS-8-69" value="" style="endArrow=open;html=1;rounded=0;exitX=0.494;exitY=1.057;exitDx=0;exitDy=0;endFill=0;entryX=0.86;entryY=-0.135;entryDx=0;entryDy=0;exitPerimeter=0;entryPerimeter=0;" parent="3" source="Vm5n7rc9IjcNKeEfTS-8-55" target="Vm5n7rc9IjcNKeEfTS-8-68" edge="1">
          <mxGeometry width="50" height="50" relative="1" as="geometry">
            <mxPoint x="141" y="492" as="sourcePoint" />
            <mxPoint x="140" y="542" as="targetPoint" />
          </mxGeometry>
        </mxCell>
        <mxCell id="Vm5n7rc9IjcNKeEfTS-8-53" value="" style="endArrow=open;html=1;rounded=0;exitX=0;exitY=0.5;exitDx=0;exitDy=0;endFill=0;" parent="1" source="Vm5n7rc9IjcNKeEfTS-8-52" edge="1">
          <mxGeometry width="50" height="50" relative="1" as="geometry">
            <mxPoint x="314.5" y="410" as="sourcePoint" />
            <mxPoint x="370" y="540" as="targetPoint" />
          </mxGeometry>
        </mxCell>
        <mxCell id="Vm5n7rc9IjcNKeEfTS-8-63" value="нет" style="edgeLabel;html=1;align=center;verticalAlign=middle;resizable=0;points=[];" parent="Vm5n7rc9IjcNKeEfTS-8-53" vertex="1" connectable="0">
          <mxGeometry x="-0.2418" y="-5" relative="1" as="geometry">
            <mxPoint y="-1" as="offset" />
          </mxGeometry>
        </mxCell>
        <mxCell id="Vm5n7rc9IjcNKeEfTS-8-60" value="" style="endArrow=open;html=1;rounded=0;exitX=0;exitY=0.5;exitDx=0;exitDy=0;endFill=0;dashed=1;" parent="1" source="Vm5n7rc9IjcNKeEfTS-8-55" edge="1">
          <mxGeometry width="50" height="50" relative="1" as="geometry">
            <mxPoint x="595" y="373" as="sourcePoint" />
            <mxPoint x="370" y="630" as="targetPoint" />
          </mxGeometry>
        </mxCell>
        <mxCell id="Vm5n7rc9IjcNKeEfTS-8-71" value="" style="endArrow=open;html=1;rounded=0;exitX=0.536;exitY=0.979;exitDx=0;exitDy=0;endFill=0;entryX=0.119;entryY=-0.227;entryDx=0;entryDy=0;exitPerimeter=0;entryPerimeter=0;dashed=1;" parent="1" source="Vm5n7rc9IjcNKeEfTS-8-61" target="Vm5n7rc9IjcNKeEfTS-8-68" edge="1">
          <mxGeometry width="50" height="50" relative="1" as="geometry">
            <mxPoint x="320.5" y="650" as="sourcePoint" />
            <mxPoint x="319.5" y="700" as="targetPoint" />
          </mxGeometry>
        </mxCell>
        <mxCell id="Vm5n7rc9IjcNKeEfTS-8-76" value="" style="ellipse;html=1;shape=endState;fillColor=#000000;strokeColor=#000000;" parent="1" vertex="1">
          <mxGeometry x="344.5" y="745" width="30" height="30" as="geometry" />
        </mxCell>
        <mxCell id="Vm5n7rc9IjcNKeEfTS-8-74" value="" style="endArrow=open;html=1;rounded=0;endFill=0;entryX=0.5;entryY=0;entryDx=0;entryDy=0;exitX=0.237;exitY=0.837;exitDx=0;exitDy=0;exitPerimeter=0;" parent="1" source="Vm5n7rc9IjcNKeEfTS-8-68" target="Vm5n7rc9IjcNKeEfTS-8-76" edge="1">
          <mxGeometry width="50" height="50" relative="1" as="geometry">
            <mxPoint x="360.5" y="710" as="sourcePoint" />
            <mxPoint x="359.5" y="760" as="targetPoint" />
          </mxGeometry>
        </mxCell>
        <mxCell id="Vm5n7rc9IjcNKeEfTS-8-77" value="" style="endArrow=open;html=1;rounded=0;exitX=0.5;exitY=1;exitDx=0;exitDy=0;endFill=0;entryX=-0.044;entryY=0.659;entryDx=0;entryDy=0;entryPerimeter=0;" parent="1" source="Vm5n7rc9IjcNKeEfTS-8-57" target="Vm5n7rc9IjcNKeEfTS-8-76" edge="1">
          <mxGeometry width="50" height="50" relative="1" as="geometry">
            <mxPoint x="221" y="660" as="sourcePoint" />
            <mxPoint x="200" y="750" as="targetPoint" />
            <Array as="points">
              <mxPoint x="200" y="580" />
              <mxPoint x="200" y="765" />
            </Array>
          </mxGeometry>
        </mxCell>
        <mxCell id="Vm5n7rc9IjcNKeEfTS-8-78" value="нет" style="edgeLabel;html=1;align=center;verticalAlign=middle;resizable=0;points=[];" parent="Vm5n7rc9IjcNKeEfTS-8-77" vertex="1" connectable="0">
          <mxGeometry x="-0.2067" relative="1" as="geometry">
            <mxPoint as="offset" />
          </mxGeometry>
        </mxCell>
      </root>
    </mxGraphModel>
  </diagram>
</mxfile>
